<svg id="icon" height="512" viewBox="0 0 128 128" width="512" xmlns="http://www.w3.org/2000/svg"><circle cx="64" cy="64" fill="#3dbce9" r="63"/><circle cx="64" cy="64" fill="#d9e2e9" r="51.69"/><path d="m115.69 64a51.7 51.7 0 0 1 -96.28 26.16 51.7 51.7 0 0 0 80.17-63.67 51.61 51.61 0 0 1 16.11 37.51z" fill="#c1cdd3"/><path d="m64 128a64 64 0 1 1 64-64 64.07 64.07 0 0 1 -64 64zm0-126a62 62 0 1 0 62 62 62.07 62.07 0 0 0 -62-62z" fill="#2f3a5a"/><path d="m64 116.69a52.69 52.69 0 1 1 52.69-52.69 52.75 52.75 0 0 1 -52.69 52.69zm0-103.38a50.69 50.69 0 1 0 50.69 50.69 50.75 50.75 0 0 0 -50.69-50.69z" fill="#2f3a5a"/><path d="m22.51 55.9a1.52 1.52 0 0 1 -1.46-1.9c4.25-15 13.14-23.33 19.85-27.67a1.52 1.52 0 1 1 1.65 2.55c-6.27 4.05-14.55 11.84-18.55 25.91a1.52 1.52 0 0 1 -1.49 1.11z" fill="#fff"/><path d="m46.74 26.36a1.52 1.52 0 0 1 -.63-2.9 23.22 23.22 0 0 1 2.89-1.14 1.52 1.52 0 1 1 .87 2.91 20.83 20.83 0 0 0 -2.52 1 1.55 1.55 0 0 1 -.61.13z" fill="#fff"/><path d="m88.55 62.1-34.26-20.17a2.21 2.21 0 0 0 -3.29 1.9v40.34a2.21 2.21 0 0 0 3.32 1.9l34.23-20.17a2.21 2.21 0 0 0 0-3.8z" fill="#d7212d"/><path d="m53.17 87.38a3.22 3.22 0 0 1 -3.17-3.21v-40.34a3.2 3.2 0 0 1 4.83-2.76l34.22 20.17a3.2 3.2 0 0 1 0 5.52l-34.25 20.17a3.21 3.21 0 0 1 -1.63.45zm0-44.76a1.13 1.13 0 0 0 -.6.17 1.15 1.15 0 0 0 -.61 1v40.38a1.21 1.21 0 0 0 1.81 1l34.23-20.17a1.21 1.21 0 0 0 0-2l-34.22-20.21a1.22 1.22 0 0 0 -.6-.17z" fill="#2f3a5a"/></svg>